<svg xmlns="http://www.w3.org/2000/svg" xmlns:xlink="http://www.w3.org/1999/xlink" width="41" height="56" viewBox="0 0 41 56"><defs><path id="p88za" d="M349.5 2111.238c10.893 0 19.723 8.83 19.723 19.724 0 1.303-.126 2.578-.368 3.81.03.315.052.638.07.971 0 0-2.883 17.76-18.778 30.282v.986c-.218-.16-.433-.322-.647-.485-.214.163-.43.325-.647.485v-.986c-15.895-12.521-18.777-30.282-18.777-30.282.017-.333.04-.656.069-.97a19.823 19.823 0 0 1-.368-3.811c0-10.894 8.83-19.724 19.723-19.724z"/><path id="p88zb" d="M349.687 2123.375a7.938 7.938 0 1 1 0 15.875 7.938 7.938 0 0 1 0-15.875z"/></defs><g><g transform="translate(-329 -2111)"><use fill="#e75735" xlink:href="#p88za"/></g><g transform="translate(-329 -2111)"><use fill="#fff" xlink:href="#p88zb"/></g></g></svg>